<svg xmlns="http://www.w3.org/2000/svg" viewBox="0 0 145 34">
<style type="text/css"> 
	.st0{fill:#745D7B;}
	.st1{opacity:0.22;fill:#745D7B;}
</style>
<path class="st0" d="M33.2,9V8.4c0-2.6-0.6-7.3-7.6-7.4c0,0-5.8,0-7.5,0v0c-0.2,0-0.4,0-0.4,0c0,0-0.1,0-0.1,0h0h0h0c0,0,0,0,0,0h0
	l0,0.4v10.2c0,0.1,0,0.1,0,0.2c0,0.1,0,0.3,0,0.4v1.1c0,0.3,0.1,0.7,0.1,1c0,0,0,0.1,0,0.1c0,0.1,0.1,0.3,0.1,0.4c0,0,0,0.1,0,0.1
	c0,0.1,0.1,0.2,0.1,0.3c0,0,0,0.1,0.1,0.1c0.4,0.7,0.9,1.4,1.9,2.1l5.9,3.5c1,0.7,1.6,0.9,1.6,3.8v1.9c0,0,0,0,0,0
	c0,0.1,0,0.1,0,0.1c0,0,0,0,0,0c0,0,0,0.1,0,0.1c0,0,0,0,0,0c0,0,0,0.1-0.1,0.1c0,0,0,0,0,0c0,0,0,0.1-0.1,0.1c0,0,0,0,0,0
	c0,0,0,0.1-0.1,0.1c0,0,0,0,0,0c0,0-0.1,0.1-0.1,0.1c0,0,0,0,0,0c0,0-0.1,0.1-0.1,0.1c0,0,0,0,0,0c-0.1,0.1-0.1,0.1-0.2,0.2
	c0,0,0,0,0,0c0,0-0.1,0-0.1,0.1c0,0,0,0,0,0c0,0-0.1,0-0.1,0.1c0,0,0,0,0,0c-0.1,0-0.2,0.1-0.3,0.1c0,0,0,0,0,0c0,0-0.1,0-0.1,0
	c0,0,0,0,0,0c0,0-0.1,0-0.1,0c0,0,0,0,0,0c0,0-0.1,0-0.1,0c0,0,0,0,0,0c-1.1,0.1-2.3-0.5-2.3-1.7v-0.1c0-0.1,0-0.2,0-0.3
	c0-0.1,0-0.2,0-0.3v0c0-0.1,0-0.1,0-0.1h0c0-0.6-0.1-1.1-0.4-1.6c-0.6-1.2-1.8-2.2-4-3.6c-0.4-0.2-0.7-0.4-1-0.6v0c0,0,0,0,0,0
	c-0.2-0.1-0.3-0.2-0.5-0.3c0,0,0,0,0,0v0l0,0v6.7v3.4v3.8h0c0,0,0,0,0.1,0c0,0,0,0,0,0c0,0,0,0,0,0c0,0,0,0,0.1,0c0.1,0,0.1,0,0.3,0
	c0,0,0,0,0,0c0,0,0,0,0,0c0,0,0,0,0,0c0.6,0,1.5,0,2.6,0c0.1,0,0.1,0,0.2,0c-0.1,0-0.1,0-0.2,0c2.2,0,4.8,0,4.9,0
	c2,0,3.6-0.3,4.7-0.9c0,0,0,0,0,0c1.2-0.6,1.9-1.4,2.4-2.4c0,0,0,0,0,0c0.1-0.2,0.2-0.4,0.2-0.5c0,0,0,0,0,0
	c0.1-0.2,0.1-0.4,0.2-0.5c0,0,0,0,0,0c0-0.1,0.1-0.2,0.1-0.3c0,0,0,0,0,0c0-0.2,0.1-0.4,0.1-0.5c0,0,0,0,0-0.1c0-0.2,0-0.4,0.1-0.5
	c0,0,0,0,0,0c0-0.1,0-0.2,0-0.4c0,0,0,0,0,0c0-0.2,0-0.5,0-0.7v-4.5c0-2.2-1-3.6-4.4-5.7c-0.1-0.1-0.2-0.1-0.3-0.2
	c0,0-0.1,0-0.1-0.1c-0.1,0-0.2-0.1-0.2-0.1c0,0,0,0-0.1,0c-2.8-1.7-4.4-2.5-4.7-4.3c0-0.2,0-0.3,0-0.5v-1c0,0,0,0,0,0c0,0,0,0,0,0
	c0-0.1,0-0.4,0-0.7c0-0.2,0-0.4,0-0.7c0-1.5,1.2-2.2,2.3-2.1c0,0,0,0,0,0c0.6,0.1,1.2,0.4,1.5,1c0,0,0,0,0,0c0,0,0,0,0,0.1
	c0,0,0,0,0,0c0,0,0,0,0,0.1c0,0,0,0,0,0c0,0,0,0,0,0.1c0,0,0,0,0,0c0,0,0,0,0,0.1c0,0,0,0,0,0.1c0,0,0,0,0,0.1c0,0,0,0,0,0.1
	c0,0,0,0,0,0c0,0,0,0,0,0.1c0,0,0,0,0,0c0,0,0,0,0,0.1c0,0,0,0,0,0c0,0,0,0.1,0,0.1c0,0,0,0,0,0c0,0,0,0.1,0,0.1c0,0.2,0,0.3,0,0.4
	v0c0,0.1,0,0.1,0,0.1h0h0c0,0.5,0.1,1.1,0.4,1.6c0.6,1.1,1.7,2.2,3.9,3.5c0.5,0.3,1,0.6,1.5,0.9v0h0h0h0v-0.3l0,0L33.2,9L33.2,9z"/>
<path class="st0" d="M14.6,17.7L14.6,17.7C14.6,17.7,14.6,17.7,14.6,17.7c-0.1-0.1-0.2-0.2-0.3-0.3l0,0c2.2-1.4,2.4-3.2,2.4-4.6
	c0-0.4,0-0.8,0-1.1V1v0c-0.1,0-0.2,0-0.3,0c-0.1,0-0.2,0-0.2,0c0,0,0,0,0,0v0c-3,0.3-5.4,2.8-5.4,5.8v3.9c0,0.2,0,0.4,0,0.5
	c-0.2,1.1-0.8,1.8-1.9,2.6c-1.3-0.9-2-1.7-2-3.2V6.9c0-0.1,0-0.2,0-0.3c0-0.2,0-0.4-0.1-0.6c0-0.2-0.1-0.4-0.1-0.6
	c0-0.2-0.1-0.4-0.2-0.6C6.5,4.7,6.4,4.5,6.3,4.3c0-0.1-0.1-0.2-0.1-0.3C6.1,3.9,6,3.7,5.8,3.5C5.7,3.3,5.5,3.1,5.4,2.9
	C5.3,2.9,5.2,2.8,5.2,2.7C4.1,1.7,2.6,1,1,1v0h0v10.7c0,1.4-0.4,3.9,2.4,5.7l0,0C1.6,18.8,1,20.1,1,21.8v4.5v0.5v6.5v0v0h0
	c3.2,0,5.8-2.6,5.8-5.8v0v-2.9c0-1.3,0.1-2.1,0.4-2.6c0.3-0.5,0.6-0.8,1.1-1.1c0,0,0,0,0,0c0,0,0,0,0.1,0c0,0,0.1,0,0.1-0.1l0.4-0.3
	l0.4,0.3c1,0.7,1.6,0.9,1.6,3.8v2.9c0,3.2,2.6,5.8,5.8,5.8h0v0l0,0V21.8C16.7,20.2,16.2,19,14.6,17.7z"/>
<polygon class="st1" points="157.2,199.9 157.2,199.9 157.2,199.9 "/>
<g>
	<g>
		<path class="st0" d="M46.8,8.7c-1.1-0.1-2.2,0-3.3,0c-1.5,0-2.9-0.1-4.3,0.6c-1.1,0.6-1.9,1.5-2.4,2.6c-0.4,0.9-0.5,1.8-0.5,2.7
			c0,0.3,0,0.7,0,1c0,0.3,0,0.6,0.3,0.8c0.2,0.2,0.6,0.3,0.9,0.4c2.3,0.6,4.6,1.2,6.9,1.9c0.2,0.1,0.4,0.1,0.5,0.3
			c0.2,0.3,0.2,0.6,0.2,1c0,1.2-0.6,2.2-1.6,2.8c-0.6,0.4-1.3,0.5-2,0.5c-0.6,0-1.2,0-1.8,0c-0.7,0-1.4,0-2.1,0
			c-0.4,0-0.9-0.1-1.3,0.2C36,23.8,36,24.2,36,24.6c0,0.4,0.2,0.8,0.6,1c0.4,0.1,0.8,0,1.2,0c1.3,0,2.5,0,3.8,0c1.1,0,2.1-0.2,3-0.8
			c1-0.6,1.7-1.5,2.2-2.5c0.4-0.9,0.5-1.8,0.5-2.7c0-0.6,0-1.1,0-1.7c-0.1-0.8-1-0.9-1.6-1c-0.8-0.2-1.6-0.4-2.5-0.7
			c-1.2-0.3-2.5-0.7-3.7-1c-0.1,0-0.2-0.1-0.3-0.1c-0.5-0.2-0.6-0.6-0.6-1.1c0.1-1.1,0.8-2.2,1.8-2.7c0.6-0.3,1.2-0.3,1.8-0.3
			c0.6,0,1.3,0,1.9,0c0.7,0,1.4,0,2,0c0.4,0,1,0.1,1.3-0.3c0.2-0.3,0.2-0.7,0.2-1C47.5,9.2,47.2,8.8,46.8,8.7z"/>
	</g>
	<g>
		<path class="st0" d="M116.4,8.7c-1.6,0-3.2-0.1-4.7,0.4c-2.6,0.8-4.7,3.1-5.3,5.8c-0.3,1.2-0.2,2.5-0.2,3.8c0,1.5,0,3,0,4.5
			c0,0.4,0,0.8,0,1.3c0,0.8,0.8,1.4,1.6,1.1c0.8-0.3,0.7-1.2,0.7-1.9c0-0.5,0-1.1,0-1.6c0-1.2,0-2.5,0-3.7c0-0.4,0-0.8,0-1.1
			c0-1.2,0.1-2.2,0.7-3.3c0.6-1.1,1.6-2,2.8-2.5c0.9-0.4,2.9-0.9,3.2,0.5c0.1,0.5,0,1,0,1.5c0,0.7,0,1.5,0,2.2c0,0.2,0,0.4,0,0.5
			c0,0.1,0.1,0.3-0.1,0.4c-0.1,0.1-0.5,0-0.6,0c-0.4,0-0.7,0-1.1,0c-0.7,0-1.4,0-2.2,0c-0.6,0-1.3,0-1.5,0.7c-0.2,0.5,0,1.1,0.4,1.4
			c0.3,0.2,0.5,0.2,0.8,0.2c0.7,0,1.4,0,2.1,0c0.6,0,1.3-0.1,1.7,0.3c0.6,0.5,0.4,1.4,0.4,2.1c0,1.1,0,2.1,0,3.2
			c0,1,1.2,1.6,1.9,0.9c0.5-0.5,0.4-1.2,0.4-1.8c0-2,0-4,0-6c0-2.5,0-5,0-7.5C117.5,9.3,117.1,8.7,116.4,8.7z"/>
	</g>
	<g>
		<path class="st0" d="M135,12.1c0-0.6,0.5-1.1,1.1-1.1c0.1,0,0.2,0,0.4,0c0.6,0,1.3,0,1.9,0c1.5,0,2.9,0,4.4,0c0.1,0,0.3,0,0.5,0
			c0.5-0.1,0.9-0.6,0.9-1.1c0-0.6-0.4-1.1-1-1.1c-0.1,0-0.2,0-0.3,0c-1.3,0-2.6,0-3.9,0c-1.5,0-2.9,0-4.4,0c-0.4,0-0.9,0-1.2,0.2
			c-0.5,0.4-0.5,0.9-0.5,1.4c0,2.5,0,4.9,0,7.4c0,1.3,0,2.6,0,3.9c0,0.5,0,1,0,1.6c0,0.6-0.2,1.5,0.2,2c0.3,0.4,0.8,0.4,1.3,0.4
			c0.6,0,1.2,0,1.8,0c1.7,0,3.3,0,5,0c0.5,0,1.1,0,1.6,0c0.6,0,1.2-0.2,1.4-0.9c0.1-0.5-0.1-1.1-0.6-1.3c-0.2-0.1-0.4-0.1-0.6-0.1
			c-0.6,0-1.1,0-1.7,0c-1.5,0-3,0-4.5,0c-0.1,0-0.3,0-0.4,0c-0.5,0-0.9-0.3-1.1-0.8c-0.1-0.3-0.1-0.6-0.1-0.9c0-0.3,0-0.7,0-1
			c0-0.3,0-0.7,0-0.9c0.1-0.5,0.6-0.8,1.1-0.9c0.6,0,1.3,0,1.9,0c0.4,0,0.7,0,1.1,0c0.3,0,0.6,0,0.8-0.2c1-0.6,0.5-2.1-0.6-2.1
			c-1.3,0-2.7,0-4,0c-0.1,0-0.2,0-0.3,0c-0.1,0-0.1,0-0.1-0.1c0-0.2,0-0.3,0-0.5c0-0.8,0-1.5,0-2.3C135,13.2,135,12.6,135,12.1z"/>
	</g>
	<g>
		<path class="st0" d="M89.1,8.7c0.6,0,1,0.6,1,1.2c0,0.1,0,0.2,0,0.4c0,0.6,0,1.3,0,1.9c0,2,0,4.1,0,6.1c0,1.3,0,2.6,0,3.9
			c0,0.5,0.3,1,0.8,1.2c0.4,0.1,0.9,0,1.3,0c0.6,0,1.2-0.1,1.7-0.5c0.7-0.5,1.2-1.3,1.3-2.2c0.1-0.8,0.1-1.7,0.1-2.5
			c0-0.8,0-1.7,0-2.5c0-0.5,0.3-1.1,0.8-1.2c0.7-0.1,1.1,0.5,1.2,1.1c0,0.8,0,1.5,0,2.3c0,0.7,0,1.5,0,2.2c0.1,1.7,1.3,3.2,3,3.2
			c0.4,0,0.8,0,1.2,0c0.6-0.1,0.9-0.6,0.9-1.2c0-0.4,0-0.8,0-1.2c0-1.9,0-3.8,0-5.7c0-1.6,0-3.3,0-4.9c0-0.6,0.1-1.5,0.9-1.5
			c0.6-0.1,1,0.6,1,1.1c0,0.1,0,0.2,0,0.3c0,1.5,0,2.9,0,4.4c0,2.1,0,4.1,0,6.2c0,1.2,0,2.4,0,3.6c0,0.4-0.1,0.8-0.5,1
			c-0.3,0.2-0.6,0.2-1,0.2c-0.9,0-1.8,0-2.7,0c-0.6,0-1.3-0.1-1.9-0.4c-0.4-0.2-0.8-0.5-1.2-0.8c-0.3-0.3-0.5-0.6-1-0.6
			c-0.5,0-0.7,0.4-1,0.6c-0.4,0.3-0.8,0.6-1.2,0.7c-0.6,0.3-1.2,0.4-1.8,0.4c-0.9,0-1.8,0-2.7,0c-0.3,0-0.7,0-1-0.2
			c-0.3-0.2-0.5-0.6-0.5-1c0-1.2,0-2.4,0-3.6c0-2.1,0-4.1,0-6.2c0-1.5,0-2.9,0-4.4C88.2,9.5,88.3,8.7,89.1,8.7z"/>
	</g>
	<path class="st0" d="M131.1,23.2c-0.1-2.1-1.3-4-3-5.2c1.2-0.5,2.1-1.7,2.4-3c0.3-1.3,0.1-2.8-0.6-3.9c-0.7-1.2-1.8-2-3.1-2.2
		c-0.9-0.2-1.8-0.1-2.7-0.1c-1.2,0-2.3,0-3.5,0c-0.4,0-0.7,0.1-1,0.4c-0.3,0.3-0.3,0.6-0.3,1c0,0.7,0,1.4,0,2c0,0.8,0,1.7,0,2.6
		c0,1.5,0,3,0,4.5c0,0.8,0,1.7,0,2.5c0,0.6,0,1.2,0,1.8c0,0.6-0.1,1.5,0.4,1.9c0.4,0.3,1,0.3,1.5,0c0.3-0.3,0.4-0.6,0.4-1
		c0-0.7,0-1.4,0-2.1c0-1,0-2,0-3c0-0.3,0-0.5,0-0.8c0.8,0,1.6,0,2.4,0.1c0.7,0.1,1.4,0.3,2,0.6c1.2,0.6,2.1,1.6,2.6,2.8
		c0.3,0.8,0.2,1.6,0.2,2.5c0,0.5,0.1,0.9,0.6,1.1c0.5,0.2,1.1,0.1,1.4-0.3c0.3-0.3,0.2-0.7,0.2-1.1
		C131.1,24.1,131.1,23.2,131.1,23.2z M121.6,12c0.1-0.5,0.5-0.9,1-1c0.2,0,0.3,0,0.5,0c0.6,0,1.2,0,1.8,0c0.9,0,1.8,0.1,2.6,0.7
		c0.9,0.7,1.2,2.1,0.8,3.2c-0.4,1.1-1.7,1.5-2.8,1.6c-0.6,0-1.2,0-1.8,0c-0.6,0-1.2,0-1.8,0c-0.3,0-0.4,0.1-0.4-0.2
		c0-0.2,0-0.5,0-0.7C121.6,14.4,121.6,13.2,121.6,12z"/>
	<path class="st0" d="M56.9,8.9C56,8.7,55,8.7,54,8.7c-1.2,0-2.6,0.2-3.6,1c-0.8,0.6-1.3,1.5-1.5,2.5c-0.1,0.4,0,0.8,0,1.2
		c0,2.6,0,5.1,0,7.7c0,0.6,0,1.2,0.2,1.7c0.3,1,1.1,1.8,2.1,2.2c1,0.4,2.2,0.5,3.3,0.5c1.1,0,2.3-0.1,3.4-0.6c1-0.4,1.7-1.2,2.1-2.2
		c0.2-0.6,0.2-1.1,0.2-1.7c0-1.2,0-2.4,0-3.7c0-1.4,0-2.7,0-4.1c0-0.4,0-0.8,0-1.2c-0.1-1-0.7-1.9-1.5-2.4
		C58.1,9.3,57.5,9.1,56.9,8.9z M58,21.2c0,0.5-0.2,1.1-0.5,1.5c-0.6,0.6-1.4,0.8-2.2,0.8c-1.4,0.1-3.8,0.1-4.1-1.8
		c-0.1-0.7-0.1-1.3-0.1-2c0-1.3,0-2.6,0-3.9c0-0.9,0-1.8,0-2.7c0-0.3,0-0.8,0.2-1c0.4-0.8,1.1-1.1,1.9-1.3c0.9-0.1,2-0.2,2.9,0
		c0.7,0.1,1.6,0.6,1.8,1.4c0.2,0.6,0.1,1.3,0.1,1.9c0,2.3,0,4.6,0,6.9C58,21.1,58,21.1,58,21.2z"/>
	<g>
		<path class="st0" d="M71.5,8.7c0,0-5.2,0-5.5,0c-1,0-1.9,0-2.9,0c-0.4,0-0.8,0.2-1,0.6C62,9.6,62,9.8,62,10.1c0,0.6,0,1.2,0,1.8
			c0,1.8,0,3.6,0,5.5c0,1.8,0,3.7,0,5.5c0,0.6,0,1.2,0,1.8c0,0.2,0.1,0.5,0.2,0.7c0.3,0.3,0.6,0.3,1,0.3c0.4,0,0.8-0.2,0.9-0.6
			c0-0.2,0-0.3,0-0.5c0-0.6,0-1.3,0-1.9c0-0.8,0-1.7,0-2.5c0-0.3,0-0.6,0.1-0.9c0.2-0.4,0.6-0.7,1-0.7c0.4,0,0.7,0,1.1,0
			c1,0,2.1,0,3.1,0c0.4,0,0.8-0.1,0.9-0.5c0.1-0.2,0.1-0.6,0-0.8c0-0.5-0.4-0.8-0.8-0.8c-0.1,0-0.3,0-0.4,0c-1.1,0-2.2,0-3.3,0
			c-0.5,0-0.9,0-1.4,0c-0.1,0-0.3,0-0.3,0c-0.1,0-0.1,0-0.1-0.1c0-0.1,0-0.3,0-0.4c0-1,0-2,0-3.1c0-0.3,0-0.6,0-0.8
			c0.1-0.5,0.4-0.9,0.9-0.9c0.4,0,0.8,0,1.1,0c1.1,0,2.2,0,3.4,0c0.4,0,0.8,0,1.2,0c0.5,0,1.2,0.1,1.5-0.4c0.1-0.3,0.1-0.6,0.1-0.9
			C72.3,9.1,72,8.7,71.5,8.7z"/>
	</g>
	<g>
		<path class="st0" d="M86.4,8.7c0,0-4.8,0-5.5,0c-2.2,0-4.3,0-6.5,0c-0.3,0-0.5,0-0.7,0.2c-0.3,0.3-0.3,0.6-0.3,0.9
			c0,0.4,0,0.7,0.4,0.9c0.2,0.1,0.4,0.1,0.6,0.1c1,0,2,0,3,0c0.4,0,0.7,0,1.1,0c0.2,0,0.6-0.1,0.7,0.1c0,0,0,0.1,0,0.1
			c0,0.8,0,1.6,0,2.4c0,2.3,0,4.7,0,7c0,0.5,0,1,0,1.6c0,0.5,0,1.1,0,1.6c0,0.4-0.1,0.8,0,1.1c0.1,0.4,0.4,0.6,0.8,0.6
			c0.3,0,0.6,0,0.9-0.1c0.5-0.3,0.4-0.9,0.4-1.4c0-0.9,0-1.9,0-2.8c0-1.8,0-3.5,0-5.3c0-1.2,0-2.4,0-3.6c0-0.4,0-0.7,0-1.1
			c0-0.1,0-0.2,0-0.3c0.1-0.1,0.3-0.1,0.4-0.1c0.9,0,1.9,0,2.8,0c0.5,0,1,0,1.5,0c0.5,0,0.9-0.1,1.1-0.6c0.1-0.2,0-0.5,0-0.8
			C87.1,9.1,86.8,8.7,86.4,8.7z"/>
	</g>
</g>
</svg>
